<svg version="1.1" xmlns="http://www.w3.org/2000/svg" xmlns:xlink="http://www.w3.org/1999/xlink" width="161.08842" height="119.88447" viewBox="0,0,161.08842,119.88447"><defs><linearGradient x1="234.48945" y1="21.19821" x2="234.48945" y2="139.88269" gradientUnits="userSpaceOnUse" id="color-1"><stop offset="0" stop-color="#ffab19"/><stop offset="1" stop-color="#ff6a19"/></linearGradient></defs><g transform="translate(-159.16153,-20.59821)"><g data-paper-data="{&quot;isPaintingLayer&quot;:true}" fill-rule="evenodd" stroke-miterlimit="10" stroke-dasharray="" stroke-dashoffset="0" style="mix-blend-mode: normal"><path d="M252.95415,21.40182c0.60268,-0.40721 1.60713,-0.2036 1.80802,0.61082l5.22316,21.7859c0,0 12.85703,9.56951 16.67394,16.28852c6.42851,11.19836 6.62938,20.36065 6.62938,20.36065c0,0 14.26324,4.27574 16.67393,15.88131c2.41069,11.60557 -6.42851,33.59508 -44.19599,41.12852c-37.76748,7.53344 -68.102,-2.85049 -82.36527,-26.06163c-14.26324,-23.21114 8.23653,-50.90164 7.03119,-49.27278l-4.21872,-36.44556c-0.2009,-0.81442 0.80357,-1.42524 1.60713,-1.01803l24.3078,16.08491c0,0 9.04009,-3.46131 18.48197,-3.86852c5.62496,-0.40721 10.44634,0 15.06682,0.81443z" fill="url(#color-1)" stroke="#001026" stroke-width="1.2" stroke-linecap="butt" stroke-linejoin="miter"/><path d="M282.68601,81.26214c0,0 13.86149,3.66492 16.27218,15.27049c2.41069,11.60557 -7.23208,32.57705 -44.59778,39.90688c-48.61559,10.18033 -71.71806,-19.13901 -58.25835,-40.7213c13.4597,-21.7859 36.56214,-3.2577 53.437,-4.47934c14.46414,-1.01803 16.07128,-13.84525 33.14699,-9.97672z" fill="#ffffff" stroke="none" stroke-width="1" stroke-linecap="butt" stroke-linejoin="miter"/><path d="M219.40537,103.04803c0,-0.81442 0.80357,-1.42525 1.60713,-1.22164c3.81694,1.42525 14.66504,4.68296 26.71849,5.49738c10.84812,0.61082 17.27661,0 20.28997,-0.61082c1.00445,-0.20361 1.80801,0.81443 1.40624,1.83246c-1.80803,5.49738 -9.44188,20.76787 -30.53542,19.54623c-18.28108,-2.03607 -20.0891,-15.06689 -19.48642,-25.04361z" fill="#ffffff" stroke="#001026" stroke-width="1.2" stroke-linecap="round" stroke-linejoin="round"/><path d="M319.64995,83.50181c-9.44187,7.73704 -23.90602,7.94065 -23.90602,7.94065" fill="none" stroke="#001026" stroke-width="1.2" stroke-linecap="round" stroke-linejoin="round"/><path d="M317.03835,106.30574c-12.65612,1.01803 -20.49087,-2.85049 -20.49087,-2.85049" fill="none" stroke="#001026" stroke-width="1.2" stroke-linecap="round" stroke-linejoin="round"/><path d="M248.73546,85.94509c4.21872,0 8.63833,0.40721 8.8392,1.83246c0.20089,2.85049 -2.81248,8.55147 -6.02673,8.75508c-3.61604,0.40721 -12.05345,-4.68295 -12.05345,-7.94065c-0.2009,-2.44328 5.22316,-2.64688 9.24098,-2.64688z" fill="#001026" stroke="#001026" stroke-width="1.2" stroke-linecap="round" stroke-linejoin="round"/><path d="M272.44057,62.12312c5.82583,9.1623 6.02673,19.54622 0.40178,23.21114c-5.62496,3.66492 -14.86592,-0.61082 -20.89267,-9.77311c-5.82584,-9.16229 -6.02672,-19.54622 -0.40178,-23.21114c5.62496,-3.86853 15.06681,0.61082 20.89266,9.77311z" fill="#ffffff" stroke="#001026" stroke-width="1.2" stroke-linecap="round" stroke-linejoin="round"/><path d="M222.61963,67.82411c6.02673,8.95869 5.62496,19.95344 0.2009,23.82196c-6.6294,3.86853 -15.4686,1.01804 -21.49534,-7.94065c-6.22762,-8.95869 -6.6294,-20.56426 -0.40178,-25.04361c6.22761,-4.68295 15.66948,0.20361 21.69622,9.1623z" fill="#ffffff" stroke="#001026" stroke-width="1.2" stroke-linecap="round" stroke-linejoin="round"/><path d="M222.83623,77.13995c0,2.23967 -1.60713,4.07214 -3.61604,4.07214c-2.00892,0 -3.61604,-1.83247 -3.61604,-4.07214c0,-2.23967 1.60713,-4.07213 3.61604,-4.07213c2.00892,0.20361 3.61604,1.83246 3.61604,4.07213" fill="#001026" stroke="none" stroke-width="1" stroke-linecap="butt" stroke-linejoin="miter"/><path d="M273.64937,71.15551c0,2.23967 -1.60713,4.07214 -3.61604,4.07214c-2.00892,0 -3.61604,-1.83247 -3.61604,-4.07214c0,-2.23967 1.60713,-4.07213 3.61604,-4.07213c2.00892,0.20361 3.61604,1.83246 3.61604,4.07213" fill="#001026" stroke="none" stroke-width="1" stroke-linecap="butt" stroke-linejoin="miter"/><path d="M159.76153,82.89099c0,0 14.88624,5.70099 20.94461,12.01279" fill="none" stroke="#001026" stroke-width="1.2" stroke-linecap="round" stroke-linejoin="round"/><path d="M181.22541,102.03c-7.44314,3.46131 -20.25222,1.22164 -20.25222,1.22164" fill="none" stroke="#001026" stroke-width="1.2" stroke-linecap="round" stroke-linejoin="round"/></g></g></svg>